<?xml version="1.0" standalone="no"?>
<!DOCTYPE svg PUBLIC "-//W3C//DTD SVG 20010904//EN"
 "http://www.w3.org/TR/2001/REC-SVG-20010904/DTD/svg10.dtd">
<svg version="1.0" xmlns="http://www.w3.org/2000/svg"
 width="623.000000pt" height="604.000000pt" viewBox="0 0 623.000000 604.000000"
 preserveAspectRatio="xMidYMid meet">

<g transform="translate(0.000000,604.000000) scale(0.100000,-0.100000)"
fill="#000000" stroke="none">
<path d="M0 3020 l0 -3020 3115 0 3115 0 0 3020 0 3020 -3115 0 -3115 0 0
-3020z m2480 1910 c13 0 60 -53 60 -67 0 -25 26 -13 37 17 7 20 24 35 47 45
31 13 40 13 70 1 20 -8 42 -28 51 -45 15 -30 17 -31 89 -31 l73 0 92 -89 91
-88 0 -107 0 -106 356 0 356 0 -7 39 c-16 96 35 230 119 314 162 160 405 159
566 -2 126 -126 154 -298 75 -459 -43 -87 -121 -157 -214 -193 l-61 -24 -2
-592 c-3 -584 -3 -592 -24 -620 -12 -15 -36 -37 -55 -48 -32 -19 -57 -20 -485
-25 l-451 -5 33 -155 c19 -85 36 -165 39 -177 5 -21 11 -23 74 -23 65 0 71 -2
95 -31 40 -47 30 -115 -21 -138 -16 -7 -134 -11 -357 -11 l-333 0 -27 25 c-32
30 -36 91 -7 126 16 20 31 25 92 29 l74 5 37 170 c20 94 37 173 37 177 1 4
-205 9 -457 10 l-459 3 -37 29 c-69 52 -67 21 -64 784 l3 687 23 33 c34 47 74
64 169 70 l83 5 0 161 c0 181 7 205 59 222 20 6 40 22 48 38 15 29 69 59 91
51 8 -3 18 -5 22 -5z m1218 -56 c29 -33 28 -69 -3 -99 -35 -36 -86 -34 -118 5
-22 25 -24 35 -17 61 12 40 26 57 53 62 34 6 60 -3 85 -29z m-1942 -125 c11
-19 -12 -30 -65 -31 -58 0 -66 4 -58 27 7 18 112 22 123 4z m349 -9 c0 -13
-24 -15 -144 -18 -139 -2 -171 3 -156 27 4 8 53 11 153 9 123 -3 147 -5 147
-18z m1172 -32 c27 -25 30 -48 6 -48 -23 0 -53 29 -53 52 0 24 19 23 47 -4z
m133 5 c0 -23 -29 -53 -52 -53 -24 0 -23 19 4 47 25 27 48 30 48 6z m-1557
-57 c11 -29 -20 -38 -117 -34 -99 3 -112 7 -103 33 9 21 212 22 220 1z m135
-8 c3 -15 -4 -18 -42 -18 -25 0 -48 5 -51 10 -12 20 7 31 48 28 30 -2 43 -8
45 -20z m1312 -45 c0 -23 -39 -63 -56 -56 -20 7 -17 23 8 50 25 27 48 30 48 6z
m87 -5 c28 -26 30 -48 5 -48 -23 0 -66 45 -57 59 10 17 26 13 52 -11z m-1675
-315 c20 -18 24 -53 6 -53 -16 0 -58 41 -58 57 0 18 30 16 52 -4z m128 4 c0
-19 -47 -60 -59 -52 -16 9 -14 26 6 47 19 21 53 24 53 5z m-128 -140 c-29 -29
-52 -30 -52 -2 0 7 12 23 26 34 21 17 30 19 41 9 12 -10 9 -16 -15 -41z m105
31 c25 -23 31 -58 10 -58 -21 0 -60 47 -54 64 8 21 16 20 44 -6z m2653 -289
c0 -90 -3 -119 -15 -129 -29 -24 -35 0 -35 135 0 97 3 135 13 138 27 10 37
-26 37 -144z m-2580 -114 c0 -115 -2 -137 -16 -142 -27 -10 -34 17 -34 127 0
124 6 150 31 150 18 0 19 -9 19 -135z m2575 -125 c0 -48 -2 -55 -20 -55 -16 0
-21 8 -23 44 -4 54 3 73 25 69 15 -3 18 -14 18 -58z m-2577 -117 c-3 -62 -21
-80 -39 -40 -17 38 -3 97 22 97 18 0 20 -6 17 -57z m2597 -168 c50 -49 15
-135 -54 -135 -37 0 -81 44 -81 81 0 14 11 38 25 53 32 34 77 35 110 1z
m-2712 -87 c75 -39 56 -142 -26 -142 -88 0 -114 112 -34 144 30 12 35 12 60
-2z m1857 -570 c0 -20 -33 -19 -56 2 -26 26 -31 46 -11 53 12 5 67 -40 67 -55z
m105 42 c7 -11 -38 -60 -54 -60 -22 0 -22 23 0 46 24 25 44 31 54 14z m-1378
-66 c8 -20 -13 -34 -54 -34 -34 0 -48 12 -39 35 8 21 85 20 93 -1z m261 2 c2
-3 2 -12 -2 -21 -9 -24 -209 -18 -214 7 -2 11 5 18 20 20 32 4 190 -1 196 -6z
m-819 -60 c22 -24 22 -46 -1 -46 -16 0 -58 41 -58 57 0 21 35 15 59 -11z m121
7 c-1 -25 -48 -59 -63 -44 -8 8 -4 18 13 36 27 29 50 33 50 8z m1705 7 c7 -11
-38 -60 -54 -60 -22 0 -22 23 0 46 24 25 44 31 54 14z m94 -14 c23 -24 21 -46
-3 -46 -18 0 -59 47 -51 59 10 18 30 13 54 -13z m-1266 -32 c3 -3 3 -12 0 -20
-4 -11 -36 -14 -154 -14 -142 0 -149 1 -149 20 0 19 7 20 148 20 82 0 151 -3
155 -6z m167 -14 c0 -19 -5 -21 -57 -18 -46 2 -59 7 -61 21 -3 15 5 17 57 17
55 0 61 -2 61 -20z m1527 -5 c8 -21 4 -24 -49 -29 -48 -5 -87 12 -74 32 11 19
115 15 123 -3z m351 -7 c3 -15 -11 -17 -138 -20 -146 -3 -173 2 -163 28 4 12
29 14 152 12 128 -3 146 -5 149 -20z m-2684 -51 c-3 -7 -16 -20 -30 -31 -19
-13 -29 -15 -37 -7 -16 16 41 75 59 60 7 -6 11 -16 8 -22z m106 -29 c0 -23
-11 -23 -44 3 -28 22 -34 44 -13 52 17 6 57 -32 57 -55z m2325 -8 c0 -12 -20
-16 -104 -18 -101 -3 -131 4 -116 27 4 8 42 11 113 9 87 -2 107 -6 107 -18z
m140 0 c0 -11 -13 -16 -47 -18 -43 -3 -48 -1 -48 18 0 19 5 21 48 18 34 -2 47
-7 47 -18z m-319 -616 c59 -36 87 -88 92 -170 6 -88 -32 -155 -110 -195 -46
-24 -188 -27 -239 -5 -45 19 -97 74 -109 117 -17 59 -12 132 13 179 42 80 111
112 229 107 64 -3 85 -9 124 -33z m1478 2 c49 -29 84 -81 73 -110 -5 -12 -20
-16 -60 -16 -44 0 -58 4 -77 24 -44 48 -123 42 -151 -10 -7 -14 -12 -48 -12
-76 1 -40 6 -55 26 -75 32 -33 95 -37 127 -8 l22 20 -38 5 c-39 5 -39 5 -39
50 l0 45 100 0 100 0 3 -60 c2 -50 -1 -67 -20 -95 -39 -58 -90 -80 -186 -80
-163 0 -236 63 -236 205 0 101 42 166 129 200 65 24 181 15 239 -19z m-4526
-25 c4 -54 -5 -61 -80 -61 l-58 0 0 -145 0 -145 -65 0 -65 0 0 145 0 145 -54
0 c-78 0 -86 5 -86 54 0 24 3 46 7 50 4 3 95 5 202 4 l196 -3 3 -44z m170 37
c7 -7 12 -39 12 -75 l0 -63 75 0 74 0 3 73 3 72 60 0 60 0 3 -197 2 -198 -65
0 -65 0 0 70 0 70 -75 0 -75 0 -1 -55 c-1 -30 -2 -61 -3 -67 -1 -9 -21 -13
-66 -13 l-65 0 -3 185 c-1 101 0 190 2 197 7 17 108 17 124 1z m651 -1 c20
-24 171 -370 165 -378 -3 -5 -34 -9 -70 -9 -65 0 -65 0 -80 35 l-14 35 -83 0
-82 0 -15 -33 c-14 -30 -18 -32 -74 -35 -32 -2 -62 1 -67 5 -7 8 141 354 163
380 15 18 142 17 157 0z m413 -91 l73 -105 5 102 5 102 56 3 c39 2 59 -1 68
-11 8 -10 11 -68 9 -198 l-3 -184 -72 -3 -72 -3 -41 61 c-24 35 -46 58 -52 54
-7 -4 -8 -3 -4 4 4 6 -6 30 -21 53 l-28 43 -3 -107 -3 -107 -64 0 -65 0 0 193
c0 107 3 197 7 200 3 4 35 7 69 7 l63 0 73 -104z m416 27 l3 -73 79 0 79 0 3
73 3 72 60 0 60 0 3 -197 2 -198 -65 0 -65 0 0 70 0 70 -80 0 -80 0 0 -70 0
-71 -62 3 -63 3 -3 185 c-1 101 0 190 3 198 3 9 21 12 62 10 l58 -3 3 -72z
m670 0 l3 -73 79 0 79 0 3 73 3 72 60 0 60 0 0 -195 0 -195 -62 -3 -63 -3 0
71 0 70 -80 0 -80 0 0 -70 0 -70 -65 0 -65 0 0 193 c0 107 3 197 7 201 4 4 32
6 63 4 l55 -3 3 -72z m1151 64 c20 -24 171 -370 165 -378 -3 -5 -34 -9 -70 -9
-65 0 -65 0 -80 35 l-14 35 -83 0 -82 0 -15 -33 c-14 -30 -18 -32 -74 -35 -32
-2 -63 1 -67 5 -8 8 29 96 133 323 11 25 25 51 30 58 15 17 142 16 157 -1z
m413 -93 l73 -105 5 103 5 103 56 3 c39 2 59 -1 68 -11 8 -10 11 -68 9 -198
l-3 -184 -72 -3 -71 -3 -74 107 -73 106 -3 -107 -3 -106 -62 3 -62 3 -3 185
c-1 101 0 190 2 197 4 9 27 13 70 13 l66 0 72 -106z m-1842 -774 c0 -86 -11
-116 -24 -67 -8 30 -8 142 1 150 18 18 23 0 23 -83z m125 80 c-3 -5 -15 -10
-26 -10 -17 0 -19 -7 -19 -81 0 -60 -3 -80 -12 -77 -9 3 -14 31 -16 81 -3 69
-5 77 -22 77 -11 0 -20 5 -20 10 0 6 27 10 61 10 37 0 58 -4 54 -10z"/>
<path d="M2406 4876 l-21 -21 44 -3 c56 -4 77 3 62 22 -21 25 -61 26 -85 2z"/>
<path d="M2632 4884 c-34 -24 -26 -34 28 -34 28 0 50 4 50 9 0 10 -39 41 -50
41 -3 0 -16 -7 -28 -16z"/>
<path d="M4083 4872 c-279 -100 -332 -472 -90 -638 120 -83 285 -84 404 -3
227 155 203 503 -43 623 -77 38 -194 46 -271 18z m132 -42 c0 -28 -4 -35 -20
-35 -13 0 -21 8 -23 23 -5 34 5 54 25 50 13 -2 18 -13 18 -38z m230 -180 c11
-18 -11 -34 -103 -74 -108 -46 -116 -60 -77 -135 16 -32 21 -52 14 -56 -18
-12 -36 3 -58 49 -11 25 -28 46 -35 46 -21 0 -45 38 -39 61 8 30 47 53 70 41
13 -7 42 1 113 34 105 48 106 48 115 34z m-507 -117 c-4 -22 -67 -31 -79 -12
-12 21 -1 29 42 29 33 0 40 -3 37 -17z m597 -3 c0 -18 -62 -27 -77 -12 -18 18
3 33 40 30 25 -2 37 -8 37 -18z m-315 -295 c0 -39 -14 -52 -36 -35 -25 21 -7
84 21 73 9 -3 15 -18 15 -38z"/>
<path d="M2390 4811 l-85 -6 -3 -465 c-1 -256 0 -475 3 -488 l5 -22 368 2 367
3 3 403 2 402 -85 0 -85 0 0 85 0 85 -60 0 c-54 0 -63 -3 -88 -30 -31 -35 -84
-46 -90 -19 -2 11 8 21 30 30 32 13 31 14 -46 17 -74 3 -81 1 -100 -22 -27
-31 -60 -48 -80 -40 -24 9 -19 33 9 44 14 5 25 14 25 20 0 5 -1 9 -2 8 -2 -1
-41 -4 -88 -7z m508 -323 c3 -17 -13 -18 -222 -18 -220 0 -226 1 -226 20 0 20
5 20 222 18 203 -3 223 -5 226 -20z m0 -135 c-3 -17 -22 -18 -223 -18 -201 0
-220 1 -223 18 -3 16 13 17 223 17 210 0 226 -1 223 -17z m0 -135 c4 -20 -64
-25 -295 -20 -144 3 -153 5 -153 23 0 19 8 19 222 17 199 -3 223 -5 226 -20z
m-140 -114 c25 -7 29 -29 6 -38 -9 -3 -80 -6 -159 -6 -106 0 -145 3 -154 13
-23 29 9 37 149 37 74 0 145 -3 158 -6z"/>
<path d="M2920 4731 l0 -48 45 -1 c25 -1 45 2 45 6 0 5 -20 27 -45 50 l-45 42
0 -49z"/>
<path d="M2110 4413 c-40 -13 -60 -29 -75 -58 -13 -29 -15 -115 -15 -659 l0
-626 1110 0 1110 0 0 529 0 528 -74 6 c-142 10 -269 97 -329 224 l-29 63 -359
0 -359 0 0 -293 0 -294 -23 -21 c-23 -22 -27 -22 -395 -22 -369 0 -371 0 -392
22 -19 21 -20 34 -20 315 l0 293 -67 -1 c-38 0 -75 -3 -83 -6z m1664 -346 c-7
-28 -12 -52 -11 -52 1 -1 19 -11 40 -23 50 -29 56 -28 97 13 37 38 48 42 56
21 3 -8 -10 -31 -30 -52 -41 -44 -43 -50 -16 -84 11 -14 20 -31 20 -39 0 -9 7
-11 23 -7 49 14 107 18 107 9 0 -17 -24 -32 -66 -41 l-39 -8 0 -53 0 -54 48
-14 c29 -8 47 -19 47 -29 0 -23 -21 -26 -72 -10 l-47 14 -27 -45 -26 -45 36
-37 c20 -20 36 -42 36 -49 0 -24 -34 -11 -65 26 -30 34 -34 36 -51 21 -11 -8
-31 -20 -46 -27 l-27 -11 15 -52 c10 -34 12 -55 6 -61 -16 -16 -31 0 -45 50
l-14 47 -50 3 -50 3 -15 -53 c-10 -36 -20 -54 -33 -57 -16 -3 -17 2 -12 35 3
22 9 49 12 61 6 17 1 25 -25 38 -30 15 -33 15 -51 -1 -10 -9 -16 -21 -13 -26
3 -5 -56 -72 -132 -149 -121 -121 -142 -139 -170 -139 -23 0 -39 8 -53 26 -38
49 -30 64 109 201 137 133 150 144 161 138 3 -3 14 4 24 15 18 19 18 22 2 56
-14 28 -20 33 -35 26 -9 -5 -33 -12 -53 -16 -28 -5 -38 -3 -42 8 -7 18 2 25
57 41 40 12 41 13 44 63 l3 50 -56 16 c-32 10 -55 22 -55 30 0 22 20 24 73 8
27 -8 49 -12 50 -10 1 1 13 23 25 47 l24 43 -36 37 c-20 20 -36 42 -36 49 0
23 36 12 69 -22 l33 -34 44 25 c47 26 48 32 22 101 -9 27 -3 42 17 42 8 0 21
-22 31 -53 l16 -53 49 0 c48 0 49 1 59 35 5 20 10 41 10 48 0 17 33 34 41 21
4 -6 1 -33 -7 -61z m-771 -431 c3 -8 3 -17 0 -20 -4 -3 -197 -6 -430 -6 -416
0 -423 0 -423 20 0 20 7 20 424 20 354 0 425 -2 429 -14z m-5 -128 c8 -8 9
-15 1 -25 -15 -17 -834 -20 -844 -3 -4 6 -4 17 -1 25 5 13 67 15 419 15 303 0
416 -3 425 -12z m2 -148 c0 -20 -7 -20 -425 -20 -418 0 -425 0 -425 20 0 20 7
20 425 20 418 0 425 0 425 -20z m-246 -125 c12 -32 -30 -36 -314 -33 -153 2
-282 6 -285 10 -4 4 -5 14 -2 23 9 22 592 23 601 0z"/>
<path d="M3560 3954 c-208 -118 -126 -434 112 -434 144 0 254 132 227 272 -4
24 -8 46 -9 49 0 3 -15 26 -34 51 -68 88 -201 116 -296 62z m217 -99 c43 -45
49 -64 45 -129 -8 -100 -120 -160 -211 -114 -60 31 -83 65 -88 130 -7 95 55
158 156 158 51 0 57 -2 98 -45z"/>
<path d="M3601 3834 c-39 -33 -49 -80 -26 -128 22 -46 50 -66 93 -66 70 0 111
42 112 112 0 39 -5 52 -31 77 -41 41 -103 43 -148 5z"/>
<path d="M3460 3545 c-7 -9 -11 -18 -8 -20 3 -3 11 1 18 10 7 9 11 18 8 20 -3
3 -11 -1 -18 -10z"/>
<path d="M3270 3395 c-106 -107 -123 -128 -114 -143 6 -9 17 -18 25 -20 8 -1
69 53 137 121 l123 123 -24 22 -23 22 -124 -125z"/>
<path d="M2020 3008 c0 -30 33 -83 62 -100 19 -11 213 -13 1033 -10 556 1
1021 2 1034 2 35 0 91 61 91 99 l0 31 -1110 0 -1110 0 0 -22z"/>
<path d="M3036 2823 c-3 -16 -19 -91 -36 -167 -16 -77 -30 -146 -30 -153 0
-10 35 -13 160 -13 88 0 160 3 160 8 0 4 -16 85 -37 180 l-36 172 -88 0 c-87
0 -87 0 -93 -27z"/>
<path d="M2784 2423 c-15 -59 -19 -58 352 -58 l339 0 3 28 c7 57 10 57 -354
57 l-334 0 -6 -27z"/>
<path d="M3622 4859 c-16 -6 -22 -15 -20 -30 7 -47 68 -51 68 -6 0 33 -19 47
-48 36z"/>
<path d="M4400 3330 c-14 -26 3 -60 30 -60 27 0 44 34 30 60 -6 11 -19 20 -30
20 -11 0 -24 -9 -30 -20z"/>
<path d="M1721 3237 c-26 -26 0 -74 33 -61 16 6 17 9 20 40 1 21 -37 37 -53
21z"/>
<path d="M3880 1787 c-32 -16 -50 -52 -50 -100 0 -82 59 -130 129 -106 85 30
78 195 -9 213 -42 8 -41 8 -70 -7z"/>
<path d="M1738 1707 c-10 -23 -18 -46 -18 -50 0 -4 18 -7 40 -7 22 0 40 2 40
4 0 7 -39 96 -42 96 -2 0 -11 -19 -20 -43z"/>
<path d="M4388 1707 c-10 -23 -18 -46 -18 -50 0 -4 18 -7 40 -7 22 0 40 2 40
4 0 7 -39 96 -42 96 -2 0 -11 -19 -20 -43z"/>
</g>
</svg>
